Coordinates
version=1
nRows=12
nColumns=34
inDegrees=yes

Units are S.I. units (second, meters, Newtons, ...)
If the header above contains a line with 'inDegrees', this indicates whether rotational values are in degrees (yes) or radians (no).

endheader
time	pelvis_tilt	pelvis_list	pelvis_rotation	pelvis_tx	pelvis_ty	pelvis_tz	hip_flexion_r	hip_adduction_r	hip_rotation_r	knee_angle_r	ankle_angle_r	subtalar_angle_r	mtp_angle_r	hip_flexion_l	hip_adduction_l	hip_rotation_l	knee_angle_l	ankle_angle_l	subtalar_angle_l	mtp_angle_l	lumbar_extension	lumbar_bending	lumbar_rotation	arm_flex_r	arm_add_r	arm_rot_r	elbow_flex_r	pro_sup_r	arm_flex_l	arm_add_l	arm_rot_l	elbow_flex_l	pro_sup_l
      5.80000000	     -9.09402709	      0.32030889	      0.49320756	      0.42854027	      0.69587041	     -0.06179291	     57.65018649	    -12.89463654	      0.03527347	     78.10218069	     33.18605359	     -4.79403662	      0.00000000	     61.01563014	    -19.81504984	     -1.61266812	     78.58209528	     22.14322465	    -13.53383104	      0.00000000	    -26.25181030	     -2.31022732	      1.68355434	     78.74500528	     10.70865268	     68.60136072	    125.71903500	    102.67531352	     86.48282875	      8.61878237	     70.24671164	    120.02195840	     82.13438162
      5.81666670	     -8.61378466	      0.43562656	      0.11965247	      0.43565094	      0.71031004	     -0.06182224	     54.72563556	    -12.57658122	     -0.34837075	     74.78612646	     32.21989275	     -5.12125896	      0.00000000	     57.66343842	    -19.86281129	     -2.73240402	     75.31765183	     21.64957794	    -13.56228052	      0.00000000	    -25.48277850	     -2.55421785	      1.95061853	     77.68996487	     10.56213361	     68.55584108	    125.89522336	    102.74164794	     85.63620625	      8.57558360	     69.82599922	    119.50085888	     81.90083058
      5.83333330	     -8.60732393	      0.52040977	     -0.17574032	      0.43956119	      0.71874608	     -0.06254527	     52.64866872	    -12.44521848	     -0.75751857	     71.92860011	     31.64912334	     -4.86541578	      0.00000000	     55.32240683	    -19.83237231	     -3.73834975	     72.56641394	     21.40726909	    -13.36215484	      0.00000000	    -23.93692633	     -2.52493297	      2.15290486	     76.71728092	     10.29735980	     68.15528407	    126.47718887	    102.75225021	     84.76998685	      8.18817937	     69.22856123	    119.54407525	     81.72969171
      5.85000000	     -8.58960314	      0.59223920	     -0.48629485	      0.44288178	      0.73360875	     -0.06101973	     50.59391690	    -12.31355689	     -1.28978024	     68.92194246	     30.42365259	     -4.73596602	      0.00000000	     52.76137054	    -19.79291204	     -4.93445682	     69.37192294	     20.80307468	    -13.13583929	      0.00000000	    -22.51753599	     -2.56983513	      2.43608478	     75.84287198	     10.14682244	     67.83345757	    126.82765395	    102.76240865	     83.85307876	      7.95995379	     68.71799064	    119.34914194	     81.54012252
      5.86666670	     -8.60370477	      0.69442713	     -0.72243479	      0.44728436	      0.74324222	     -0.05877963	     48.62577408	    -12.25305722	     -1.86834365	     66.11905728	     29.56945133	     -4.42369718	      0.00000000	     50.40183574	    -19.77353670	     -6.04517062	     66.26151621	     20.39451122	    -12.68239248	      0.00000000	    -21.07866892	     -2.58218862	      2.68660247	     74.95566261	      9.94133684	     66.74776488	    127.19247702	    102.72837436	     83.11608703	      7.58814512	     67.91707884	    119.27465544	     81.29665377
      5.88333330	     -8.84888415	      0.85474236	     -0.92778610	      0.45274664	      0.75129851	     -0.05920645	     46.92279905	    -12.28053063	     -2.42332292	     63.21439032	     28.86359771	     -4.08857120	      0.00000000	     48.39184696	    -19.60474792	     -7.16841104	     63.35961386	     20.19858175	    -12.26744237	      0.00000000	    -19.34406296	     -2.56659430	      2.89251599	     74.07977077	      9.64648765	     65.49134142	    127.57036654	    102.66306739	     82.37055704	      7.45016840	     67.18866278	    119.42802401	     81.08330220
      5.90000000	     -9.34159114	      1.03208945	     -0.95425376	      0.45644995	      0.76128143	     -0.05999117	     45.36128985	    -12.45704002	     -3.04821420	     59.95300214	     27.87419420	     -3.54118199	      0.00000000	     46.73205916	    -19.18669583	     -8.18057128	     60.38707703	     19.70040451	    -11.58684869	      0.00000000	    -17.27116242	     -2.46836926	      2.91240226	     73.37123657	      9.61165452	     65.20705997	    127.52308271	    102.62887922	     81.81717350	      7.71517046	     67.01344796	    119.57414469	     80.97484217
      5.91666670	     -9.36826705	      1.19294675	     -1.13324903	      0.46207490	      0.77326729	     -0.05910936	     43.01441238	    -12.46497563	     -3.69788299	     56.28688266	     26.94180782	     -3.21375040	      0.00000000	     44.22426988	    -18.86769843	     -9.44618432	     57.15847126	     19.15432728	    -10.94958420	      0.00000000	    -15.50988947	     -2.52583201	      3.11112267	     72.35299120	      9.36527520	     64.35686143	    127.42872860	    102.52299839	     80.94120431	      7.85136881	     66.58275990	    119.37261239	     80.70595153
      5.93333330	     -9.82079361	      1.30753477	     -1.25703721	      0.46552604	      0.78474454	     -0.05928119	     41.29203533	    -12.51873410	     -4.56841356	     52.81754671	     25.53562657	     -2.59701834	      0.00000000	     42.42420308	    -18.47234841	    -10.54393801	     53.94303373	     18.13846667	    -10.18591843	      0.00000000	    -13.51315166	     -2.41658785	      3.15957788	     71.72953881	      9.30008531	     64.26065220	    127.57214652	    102.47824339	     80.18503590	      7.86312318	     66.70082110	    119.44435993	     80.61960917
      5.95000000	     -9.29149040	      1.40296548	     -1.47587603	      0.47028517	      0.79749383	     -0.05915053	     38.37152507	    -12.31132808	     -5.09311531	     48.98497427	     24.32431063	     -2.49870168	      0.00000000	     39.27392339	    -17.96454843	    -11.51937613	     50.23879282	     17.23976567	     -9.47025082	      0.00000000	    -12.65836042	     -2.45833036	      3.55980871	     70.94895284	      9.07646829	     63.39945044	    127.29871688	    102.28095269	     79.43072354	      8.01637779	     66.50150768	    118.93810324	     80.27785565
      5.96666670	     -9.29707851	      1.51624162	     -1.65093732	      0.47522283	      0.80777181	     -0.05930251	     36.14480122	    -12.13005867	     -5.67672878	     45.45418185	     22.84219837	     -2.13244814	      0.00000000	     36.84208719	    -17.40061157	    -12.37045579	     46.77770758	     16.04296733	     -8.70308576	      0.00000000	    -11.21583895	     -2.43858516	      3.67446609	     69.95199778	      8.91054224	     62.77397687	    127.35703956	    102.09948253	     78.61887747	      7.81895622	     66.65290379	    118.97868498	     80.02295489
      5.98333330	     -9.55264088	      1.55343337	     -1.80491946	      0.48053464	      0.81408575	     -0.05930038	     34.37939095	    -12.01127005	     -6.47533300	     42.19946781	     21.45433795	     -1.72881100	      0.00000000	     34.80413253	    -16.86670404	    -13.02357063	     43.25859984	     15.09185247	     -7.83889930	      0.00000000	     -9.52624364	     -2.42211244	      3.69044379	     69.44252278	      8.98660929	     62.44354470	    127.43855088	    101.98741560	     78.08085384	      7.83050098	     66.80160347	    119.00850378	     79.88708034
